<?xml version="1.0" encoding="UTF-8"?>
<svg width="1200pt" height="1200pt" version="1.1" viewBox="0 0 1200 1200" xmlns="http://www.w3.org/2000/svg">
 <g fill="#0392c1">
  <path d="m515.5 379.11c33.922-17.402 72.336-27.285 113.08-27.285 0 0 52.16-0.64453 89.613 22.32 37.453 22.969 78.18 58.613 78.18 58.613 59.598 60.176 156.98 59.887 216.87 0 59.887-59.887 59.887-156.98 0-216.87l-0.21875-0.33984c-98.387-98.383-234.31-159.23-384.44-159.24-300.11 0-541.79 240.09-543.68 540.19-1.9023 301.88 242.24 547.19 543.68 547.19 30.012 0 59.441-2.4727 88.129-7.1484-111.39 7.7383-224.95-22.938-319.13-92.035 157.31 81.152 355.34 55.824 487.21-76.043 93.207-93.207 133.17-219.48 119.95-341.06 0.046875 88.191-33.57 176.39-100.86 243.68-134.48 134.48-352.51 134.48-486.99 0-24.637-24.637-44.742-52.086-60.352-81.305 122.28 107.77 305.58 108.38 428.91 2.4453-13.496 11.004-28.148 20.645-43.781 28.664-33.922 17.402-72.336 27.285-113.08 27.285-40.746 0-79.16-9.8828-113.08-27.285-80.191-41.137-135.09-124.57-135.09-220.89s54.906-179.75 135.09-220.89z"/>
  <path d="m785.44 792.22c5.0195-4.0938 9.9062-8.3398 14.586-12.809-4.6992 4.5469-9.6875 8.6016-14.586 12.809z"/>
 </g>
</svg>
