<?xml version="1.0" encoding="UTF-8"?>
<svg width="45pt" height="20pt" version="1.1" viewBox="0 0 1200 1200" xmlns="http://www.w3.org/2000/svg">
 <path d="m1090.2 555.74h-66.324v549.67c-0.015625 6.6641-2.668 13.051-7.3789 17.762-4.7109 4.7109-11.098 7.3633-17.762 7.3789h-256.03c-6.6719 0-13.074-2.6445-17.797-7.3594-4.7266-4.7109-7.3867-11.105-7.4023-17.781v-269.48c-1.3125-41.102-24-78.531-59.828-98.711-35.828-20.18-79.594-20.18-115.43 0-35.828 20.18-58.512 57.609-59.828 98.711v269.48c-0.015625 6.6758-2.6758 13.07-7.3984 17.781-4.7266 4.7148-11.125 7.3594-17.801 7.3594h-255.93c-6.6641-0.015626-13.051-2.668-17.762-7.3789-4.7109-4.7109-7.3633-11.098-7.3789-17.762v-549.67h-66.324c-13.828-0.046876-27.012-5.832-36.406-15.977s-14.152-23.738-13.141-37.527c1.0156-13.789 7.7109-26.539 18.492-35.199l477.6-382.04h-0.003906c12.336-10.062 27.77-15.562 43.691-15.562s31.355 5.5 43.691 15.562l477.6 382.04c10.785 8.668 17.484 21.43 18.492 35.23 1.0039 13.801-3.7695 27.398-13.184 37.543-9.418 10.141-22.621 15.91-36.461 15.93z" fill="#666" fill-rule="evenodd"/>
</svg>
