<?xml version="1.0" encoding="UTF-8"?>
<svg width="45pt" height="20pt" version="1.1" viewBox="0 0 1200 1200" xmlns="http://www.w3.org/2000/svg">
 <g fill="#666">
  <path d="m695.27 728.46c-28.363 18.906-61.305 28.902-95.273 28.902-33.965 0-66.906-9.9961-95.27-28.902l-467.14-311.43c-2.5938-1.7266-5.1172-3.5312-7.5898-5.3828v510.32c0 58.508 47.48 104.95 104.95 104.95h930.11c58.508 0 104.95-47.48 104.95-104.95v-510.32c-2.4805 1.8555-5.0078 3.6641-7.6055 5.3906z"/>
  <path d="m74.645 361.44 467.14 311.44c17.684 11.789 37.949 17.684 58.215 17.684 20.27 0 40.535-5.8984 58.219-17.684l467.14-311.44c27.957-18.629 44.645-49.801 44.645-83.445 0-57.848-47.062-104.91-104.91-104.91l-930.18 0.003906c-57.848 0.003906-104.91 47.062-104.91 104.96 0 33.586 16.691 64.758 44.645 83.383z"/>
 </g>
</svg>
