<?xml version="1.0" encoding="UTF-8"?>
<svg width="45pt" height="20pt" version="1.1" viewBox="0 0 1200 1200" xmlns="http://www.w3.org/2000/svg">
 <g fill="#666">
  <path d="m598.5 630.75c-46.84-20.414-97.406-30.887-148.5-30.75-99.406 0.16406-194.7 39.727-264.98 110.02s-109.85 165.58-110.02 264.98v75c0.027344 9.9375 3.9883 19.457 11.016 26.484s16.547 10.988 26.484 11.016h675c9.9375-0.027344 19.457-3.9883 26.484-11.016s10.988-16.547 11.016-26.484v-75c0.089844-73.254-21.324-144.92-61.59-206.12-40.262-61.195-97.602-109.22-164.91-138.13z"/>
  <path d="m843.75 487.5c-43.473-0.20312-86.391 9.7656-125.33 29.102-38.938 19.34-72.812 47.512-98.922 82.273 60.762 27.395 113.99 69.09 155.13 121.53 41.145 52.438 68.977 114.06 81.121 179.59h231.75c9.9375-0.027344 19.457-3.9883 26.484-11.016s10.988-16.547 11.016-26.484v-93.75c-0.027344-74.582-29.668-146.11-82.406-198.84s-124.26-82.379-198.84-82.406z"/>
  <path d="m637.5 375c0 103.55-83.945 187.5-187.5 187.5s-187.5-83.945-187.5-187.5 83.945-187.5 187.5-187.5 187.5 83.945 187.5 187.5"/>
  <path d="m1012.5 281.25c0 93.199-75.551 168.75-168.75 168.75s-168.75-75.551-168.75-168.75 75.551-168.75 168.75-168.75 168.75 75.551 168.75 168.75"/>
 </g>
</svg>
