<?xml version="1.0" encoding="UTF-8"?>
<svg width="45pt" height="20pt" version="1.1" viewBox="0 0 1200 1200" xmlns="http://www.w3.org/2000/svg">
 <path d="m769.83 1049.8h295.38c17.766 0 34.121-7.1914 45.824-19.035 11.844-11.844 19.176-28.059 19.176-45.824 0-17.906-7.332-34.121-19.176-45.965-11.703-11.703-28.059-19.035-45.824-19.035-9.5859 0-18.047-7.0508-19.598-16.777l-65.141-400.14c-17.906-109.69-64.434-210.22-135.07-280.86-25.66-25.52-54.566-47.234-86.43-64.012-0.14062-43.566-17.906-83.047-46.527-111.67-28.762-28.762-68.523-46.527-112.51-46.527-43.848 0-83.609 17.766-112.37 46.527-28.621 28.621-46.387 68.102-46.668 111.67-31.863 16.777-60.629 38.492-86.289 64.012-70.637 70.637-117.31 171.17-135.07 280.86l-65 398.73c-0.84766 10.152-9.3047 18.188-19.738 18.188-17.906 0-34.121 7.332-45.965 19.035-11.703 11.844-19.035 28.059-19.035 45.965 0 17.344 6.9102 33.273 18.188 44.977l0.84766 0.84766c11.844 11.703 28.059 19.035 45.965 19.035h635.04zm-97.004-922.66c-23.121-4.9336-47.516-7.4727-72.895-7.4727-25.379 0-49.629 2.5391-72.895 7.4727 4.0898-9.1641 9.7305-17.484 16.637-24.391 14.383-14.383 34.262-23.266 56.258-23.266 21.996 0 41.875 8.8828 56.258 23.266 6.9102 6.9102 12.691 15.227 16.637 24.391zm55.832 962.43h-257.31c4.2305 28.059 17.484 53.156 36.66 72.328 23.406 23.547 55.977 38.07 91.93 38.07 36.094 0 68.523-14.523 92.07-38.07 19.176-19.176 32.289-44.273 36.66-72.328z" fill="#666" fill-rule="evenodd"/>
</svg>
