<?xml version="1.0" encoding="UTF-8"?>
<svg width="45pt" height="20pt" version="1.1" viewBox="0 0 1200 1200" xmlns="http://www.w3.org/2000/svg">
 <path d="m1106.2 271.88h-656.25v-93.75c-0.027344-9.9375-3.9883-19.457-11.016-26.484s-16.547-10.988-26.484-11.016h-318.75c-9.9375 0.027344-19.457 3.9883-26.484 11.016s-10.988 16.547-11.016 26.484v843.75c0.027344 9.9375 3.9883 19.457 11.016 26.484s16.547 10.988 26.484 11.016h1012.5c9.9375-0.027344 19.457-3.9883 26.484-11.016s10.988-16.547 11.016-26.484v-712.5c-0.027344-9.9375-3.9883-19.457-11.016-26.484s-16.547-10.988-26.484-11.016zm-112.5 300c-0.027344 9.9375-3.9883 19.457-11.016 26.484s-16.547 10.988-26.484 11.016h-225c-9.9375-0.027344-19.457-3.9883-26.484-11.016s-10.988-16.547-11.016-26.484v-93.75h-56.25c-4.9727 0.003906-9.7383 1.9805-13.254 5.4961s-5.4922 8.2812-5.4961 13.254v337.5c0.003906 4.9727 1.9805 9.7383 5.4961 13.254s8.2812 5.4922 13.254 5.4961h56.25v-93.75c0.027344-9.9375 3.9883-19.457 11.016-26.484s16.547-10.988 26.484-11.016h225c9.9375 0.027344 19.457 3.9883 26.484 11.016s10.988 16.547 11.016 26.484v168.75c-0.027344 9.9375-3.9883 19.457-11.016 26.484s-16.547 10.988-26.484 11.016h-225c-9.9375-0.027344-19.457-3.9883-26.484-11.016s-10.988-16.547-11.016-26.484v-37.5h-56.25c-14.914-0.015625-29.211-5.9492-39.758-16.492-10.543-10.547-16.477-24.844-16.492-39.758v-150h-75v56.25c-0.027344 9.9375-3.9883 19.457-11.016 26.484s-16.547 10.988-26.484 11.016h-225c-9.9375-0.027344-19.457-3.9883-26.484-11.016s-10.988-16.547-11.016-26.484v-150c0.027344-9.9375 3.9883-19.457 11.016-26.484s16.547-10.988 26.484-11.016h225c9.9375 0.027344 19.457 3.9883 26.484 11.016s10.988 16.547 11.016 26.484v56.25h75v-150c0.015625-14.914 5.9492-29.211 16.492-39.758 10.547-10.543 24.844-16.477 39.758-16.492h56.25v-37.5c0.027344-9.9375 3.9883-19.457 11.016-26.484s16.547-10.988 26.484-11.016h225c9.9375 0.027344 19.457 3.9883 26.484 11.016s10.988 16.547 11.016 26.484z" fill="#666"/>
</svg>
