<?xml version="1.0" encoding="UTF-8"?>
<svg width="20pt" height="20pt" version="1.1" viewBox="0 0 1200 1200" xmlns="http://www.w3.org/2000/svg" xmlns:xlink="http://www.w3.org/1999/xlink">
 <defs>
  <symbol id="c" overflow="visible">
   <path d="m-1.9062-12.922h-6.8594v1.4688h5.25v3.1719c-0.25-0.082031-0.5-0.14453-0.75-0.1875-0.25781-0.050781-0.51562-0.078125-0.76562-0.078125-1.4453 0-2.5859 0.39844-3.4219 1.1875-0.84375 0.79297-1.2656 1.8672-1.2656 3.2188 0 1.3867 0.43359 2.4648 1.2969 3.2344 0.86719 0.77344 2.0859 1.1562 3.6562 1.1562 0.54297 0 1.0938-0.046875 1.6562-0.14062s1.1484-0.22656 1.75-0.40625v-1.7656c-0.51953 0.28125-1.0547 0.49609-1.6094 0.64062-0.5625 0.13672-1.1484 0.20312-1.7656 0.20312-1 0-1.7891-0.25781-2.375-0.78125-0.58203-0.53125-0.875-1.2422-0.875-2.1406 0-0.90625 0.29297-1.6172 0.875-2.1406 0.58594-0.51953 1.375-0.78125 2.375-0.78125 0.46875 0 0.9375 0.054688 1.4062 0.15625 0.46094 0.10547 0.93359 0.26562 1.4219 0.48438z"/>
  </symbol>
  <symbol id="b" overflow="visible">
   <path d="m-2.2031-1.4688h-2.8438v-9.8594l3.0938 0.625v-1.5938l-3.0781-0.625h-1.75v11.453h-2.8594v1.4688h7.4375z"/>
  </symbol>
  <symbol id="a" overflow="visible">
   <path d="m-3.4062-1.4688h-6.0938v1.4688h8.2031v-1.4688c-0.66406-0.6875-1.5703-1.6094-2.7188-2.7656-1.1445-1.1562-1.8633-1.8984-2.1562-2.2344-0.5625-0.63281-0.95312-1.1641-1.1719-1.5938-0.21875-0.4375-0.32812-0.86719-0.32812-1.2969 0-0.67578 0.24219-1.2344 0.71875-1.6719 0.48047-0.4375 1.1094-0.65625 1.8906-0.65625 0.54297 0 1.1211 0.10156 1.7344 0.29688 0.60547 0.1875 1.25 0.47656 1.9375 0.85938v-1.7656c-0.69531-0.28125-1.3516-0.49219-1.9688-0.64062-0.61328-0.14453-1.1719-0.21875-1.6719-0.21875-1.3438 0-2.4102 0.33984-3.2031 1.0156-0.80078 0.66797-1.2031 1.5586-1.2031 2.6719 0 0.53125 0.10547 1.0391 0.3125 1.5156 0.19922 0.48047 0.55859 1.043 1.0781 1.6875 0.14844 0.16797 0.60547 0.65234 1.375 1.4531 0.77344 0.79297 1.8594 1.9062 3.2656 3.3438z"/>
  </symbol>
  <clipPath id="d">
   <path d="m689 687h288.86v289h-288.86z"/>
  </clipPath>
 </defs>
 <path d="m519.82 318.56c-54.02 0-105.83 21.457-144.03 59.656-38.199 38.199-59.66 90.008-59.66 144.03 0 54.02 21.461 105.83 59.66 144.03 38.199 38.199 90.008 59.66 144.03 59.66 54.023 0 105.83-21.461 144.03-59.66 38.199-38.195 59.66-90.008 59.66-144.03 0-54.023-21.461-105.83-59.66-144.03-38.199-38.199-90.008-59.656-144.03-59.656m0-94.023c68.68 0.03125 135.23 23.805 188.39 67.293 53.156 43.484 89.645 104.01 103.28 171.32 13.641 67.309 3.5898 137.26-28.441 198.01-32.035 60.75-84.082 108.55-147.33 135.32-72.543 29.684-153.87 29.566-226.32-0.32812s-130.2-87.156-160.71-159.36-31.305-153.52-2.2344-226.31c29.074-72.789 85.68-131.18 157.53-162.5 36.645-15.523 76.043-23.496 115.84-23.441z" fill="#d2d2d2"/>
 <g clip-path="url(#d)">
  <path d="m966.88 897.99-199.82-199.82c-7.0742-7.0391-16.652-10.992-26.633-10.992s-19.559 3.9531-26.633 10.992l-13.285 13.285v-0.003906c-7.0391 7.0781-10.988 16.656-10.988 26.637 0 9.9805 3.9492 19.555 10.988 26.633l199.88 199.76c7.0781 7.0391 16.652 10.992 26.637 10.992 9.9805 0 19.555-3.9531 26.633-10.992l13.285-13.285v0.003906c7.0117-7.082 10.941-16.652 10.93-26.617-0.011719-9.9688-3.9609-19.527-10.988-26.594z" fill="#d2d2d2"/>
 </g>
 <g fill="#d2d2d2">
  <use x="368.101563" y="749.179688" xlink:href="#c"/>
  <use x="356.835938" y="749.179688" xlink:href="#b"/>
  <use x="345.566406" y="749.179688" xlink:href="#a"/>
 </g>
</svg>
